<?xml version="1.0" encoding="iso-8859-1"?>
<!-- Generator: Adobe Illustrator 19.0.0, SVG Export Plug-In . SVG Version: 6.00 Build 0)  -->
<svg version="1.1" id="Layer_1" xmlns="http://www.w3.org/2000/svg" xmlns:xlink="http://www.w3.org/1999/xlink" x="0px" y="0px"
	 viewBox="0 0 496.158 496.158" style="enable-background:new 0 0 496.158 496.158;" xml:space="preserve">
<path style="fill:#48A1AF;" d="M248.082,0.003C111.07,0.003,0,111.063,0,248.085c0,137.001,111.07,248.07,248.082,248.07
	c137.006,0,248.076-111.069,248.076-248.07C496.158,111.062,385.088,0.003,248.082,0.003z"/>
<path style="fill:#F4F4F4;" d="M284.34,315.69l-71.938-191.313c-3.137-8.341-12.44-12.562-20.784-9.424L65.755,162.28
	c-8.341,3.137-12.561,12.442-9.424,20.783l71.938,191.314c3.137,8.341,12.442,12.561,20.783,9.424l125.864-47.328
	C283.26,333.335,287.477,324.032,284.34,315.69z"/>
<g>
	<path style="fill:#D61E1E;" d="M208.806,234.911c0.019-0.021,0.039-0.047,0.057-0.067l-0.144,0.054
		c-27.561-3.325-56.714-34.639-56.714-34.639s-2.597,42.019-20.097,63.521l-0.129,0.049c0.026,0.005,0.054,0.012,0.08,0.016
		c-0.017,0.021-0.033,0.044-0.05,0.063l0.129-0.049c27.333,4.647,56.973,34.544,56.973,34.544s1.297-42.765,19.839-63.427
		l0.142-0.054C208.865,234.92,208.834,234.914,208.806,234.911z"/>
	<path style="fill:#D61E1E;" d="M92.877,184.44c-0.709,0.204-1.316,0.204-1.822,0.002c-0.67-0.268-1.723-1.131-3.158-2.591
		l-15.09-15.438l-0.316,0.118l-1.3,21.032c-0.118,2.008-0.335,3.383-0.65,4.128c-0.314,0.745-0.853,1.33-1.617,1.757l0.231,0.615
		l7.503-2.821l-0.232-0.615c-1.209,0.354-1.996,0.497-2.363,0.434c-0.622-0.109-1.053-0.479-1.291-1.11
		c-0.179-0.476-0.251-1.14-0.216-1.989l0.124-2.551l7.968-2.997l2.255,2.36c0.585,0.615,0.908,0.97,0.967,1.062
		c0.146,0.185,0.256,0.378,0.332,0.577c0.125,0.333,0.099,0.633-0.079,0.902c-0.263,0.378-0.833,0.732-1.709,1.061l-0.449,0.169
		l0.231,0.616l10.912-4.104L92.877,184.44z M72.798,183.958l0.539-9.069l6.281,6.506L72.798,183.958z"/>
	<path style="fill:#D61E1E;" d="M96.318,203.143c0.004-0.005,0.009-0.01,0.012-0.014l-0.029,0.012
		c-5.766-0.696-11.865-7.247-11.865-7.247s-0.543,8.789-4.204,13.288l-0.027,0.011c0.005,0.001,0.011,0.002,0.017,0.003
		c-0.003,0.004-0.007,0.009-0.011,0.014l0.027-0.011c5.718,0.971,11.917,7.227,11.917,7.227s0.272-8.946,4.151-13.269l0.03-0.012
		C96.331,203.144,96.324,203.143,96.318,203.143z"/>
	<path style="fill:#D61E1E;" d="M270.633,302.733l-7.502,2.82l0.232,0.616c1.209-0.354,1.996-0.498,2.363-0.434
		c0.622,0.108,1.052,0.479,1.29,1.109c0.179,0.477,0.251,1.141,0.216,1.989l-0.123,2.552l-7.968,2.996l-2.255-2.36
		c-0.587-0.616-0.909-0.97-0.969-1.06c-0.145-0.186-0.256-0.379-0.331-0.577c-0.125-0.334-0.099-0.635,0.079-0.904
		c0.263-0.377,0.833-0.73,1.709-1.06l0.449-0.169l-0.232-0.616l-10.912,4.104l0.232,0.616c0.708-0.204,1.315-0.203,1.822-0.002
		c0.669,0.267,1.723,1.13,3.158,2.591l15.09,15.439l0.316-0.119l1.299-21.033c0.119-2.006,0.335-3.382,0.65-4.128
		c0.315-0.743,0.854-1.33,1.618-1.756L270.633,302.733z M266.451,321.906l-6.282-6.506l6.82-2.563L266.451,321.906z"/>
	<path style="fill:#D61E1E;" d="M260.642,288.232c0.004-0.004,0.008-0.009,0.011-0.013l-0.028,0.01
		c-5.718-0.971-11.917-7.227-11.917-7.227s-0.272,8.946-4.15,13.269l-0.029,0.011c0.005,0.002,0.011,0.004,0.017,0.003
		c-0.004,0.005-0.008,0.01-0.011,0.015l0.03-0.011c5.765,0.695,11.865,7.246,11.865,7.246s0.542-8.791,4.204-13.289l0.027-0.01
		C260.654,288.235,260.648,288.234,260.642,288.232z"/>
</g>
<path style="fill:#FFFFFF;" d="M318.066,325.154l-29.605-202.236c-1.291-8.817-9.483-14.92-18.303-13.629l-133.05,19.478
	c-8.817,1.291-14.919,9.486-13.628,18.304l29.606,202.236c1.291,8.817,9.486,14.919,18.303,13.628l133.05-19.477
	C313.258,342.165,319.357,333.971,318.066,325.154z"/>
<g>
	<path style="fill:#3A3A3A;" d="M259.243,255.637c17.188-17.528-1.815-34.268-7.14-39.778c-5.325-5.512-38.094-29.702-38.629-30.142
		l-0.004-0.024c0,0-0.007,0.011-0.01,0.014c-0.002-0.001-0.013-0.011-0.013-0.011l0.004,0.024
		c-0.389,0.574-24.352,33.011-28.37,39.95c-4.021,6.939-16.93,28.29,4.561,40.156c0,0,23.349,10.189,31.212-14.282
		c2.396,22.991-11.365,37.706-11.365,37.706l37.392-5.473c0,0-17.467-10.195-21.719-32.998
		C239.719,272.159,259.243,255.637,259.243,255.637z"/>
	<path style="fill:#3A3A3A;" d="M158.897,156.187c-0.735,0.048-1.33-0.081-1.781-0.386c-0.598-0.403-1.443-1.471-2.535-3.203
		l-11.46-18.295l-0.334,0.049l-5.743,20.275c-0.542,1.935-1.048,3.233-1.513,3.895c-0.467,0.66-1.117,1.117-1.954,1.372l0.095,0.651
		l7.931-1.161l-0.095-0.65c-1.257,0.087-2.057,0.061-2.401-0.08c-0.585-0.238-0.928-0.691-1.025-1.358
		c-0.074-0.504-0.003-1.168,0.211-1.989l0.663-2.468l8.423-1.233l1.701,2.787c0.442,0.726,0.683,1.14,0.721,1.241
		c0.103,0.212,0.17,0.424,0.202,0.635c0.051,0.353-0.039,0.641-0.27,0.866c-0.337,0.313-0.968,0.537-1.895,0.673l-0.475,0.069
		l0.095,0.649l11.536-1.688L158.897,156.187z M139.379,151.447l2.456-8.747l4.754,7.692L139.379,151.447z"/>
	<path style="fill:#3A3A3A;" d="M157.642,179.445c3.596-3.666-0.379-7.167-1.493-8.321c-1.114-1.153-7.968-6.214-8.082-6.305
		l-0.001-0.006v0.003c-0.001,0-0.003-0.002-0.003-0.002l0.001,0.006c-0.082,0.119-5.094,6.905-5.935,8.356
		c-0.841,1.452-3.541,5.918,0.955,8.4c0,0,4.884,2.132,6.529-2.988c0.501,4.81-2.377,7.889-2.377,7.889l7.822-1.146
		c0,0-3.654-2.132-4.543-6.902C153.558,182.902,157.642,179.445,157.642,179.445z"/>
</g>
<path style="fill:#D61E1E;" d="M307.428,309.577l-7.93,1.161l0.095,0.651c1.255-0.089,2.056-0.062,2.4,0.079
	c0.585,0.237,0.927,0.69,1.024,1.357c0.074,0.505,0.003,1.169-0.211,1.989l-0.663,2.469l-8.423,1.232l-1.701-2.786
	c-0.442-0.726-0.682-1.14-0.721-1.241c-0.103-0.212-0.169-0.424-0.2-0.635c-0.052-0.353,0.037-0.641,0.269-0.866
	c0.338-0.313,0.969-0.537,1.895-0.672l0.475-0.07l-0.095-0.649l-11.536,1.688l0.095,0.651c0.735-0.048,1.329,0.08,1.78,0.386
	c0.598,0.403,1.443,1.472,2.535,3.204l11.461,18.295l0.334-0.05l5.744-20.274c0.542-1.936,1.047-3.235,1.513-3.896
	s1.117-1.118,1.954-1.372L307.428,309.577z M299.264,327.422l-4.754-7.692l7.209-1.056L299.264,327.422z"/>
<path style="fill:#3A3A3A;" d="M298.579,288.238c0,0-4.884-2.133-6.529,2.987c-0.501-4.808,2.378-7.887,2.378-7.887l-7.823,1.145
	c0,0,3.655,2.132,4.544,6.902c-3.045-4.473-7.129-1.017-7.129-1.017c-3.597,3.668,0.379,7.168,1.493,8.321
	c1.114,1.154,7.967,6.213,8.081,6.306l0.001,0.005l0.001-0.002l0.002,0.002l-0.001-0.006c0.082-0.12,5.094-6.905,5.936-8.357
	C300.374,295.187,303.075,290.72,298.579,288.238z"/>
<path style="fill:#F4F4F4;" d="M355.613,127.566l-133.57-15.516c-8.852-1.029-16.861,5.313-17.89,14.167l-23.584,203.025
	c-1.028,8.853,5.315,16.861,14.166,17.891l133.57,15.516c8.854,1.028,16.862-5.315,17.89-14.166l23.585-203.027
	C370.808,136.604,364.467,128.594,355.613,127.566z"/>
<g>
	<path style="fill:#D61E1E;" d="M234.397,143.333c-0.474-0.546-1.015-1.795-1.623-3.749l-6.351-20.634l-0.337-0.039l-10.78,18.105
		c-1.024,1.73-1.846,2.854-2.468,3.373c-0.621,0.519-1.367,0.793-2.242,0.822l-0.076,0.653l7.962,0.924l0.075-0.652
		c-1.236-0.24-2.003-0.471-2.299-0.696c-0.504-0.381-0.718-0.907-0.64-1.578c0.058-0.505,0.298-1.128,0.717-1.866l1.278-2.213
		l8.456,0.981l0.924,3.131c0.24,0.815,0.364,1.277,0.376,1.386c0.045,0.231,0.055,0.453,0.03,0.666
		c-0.041,0.352-0.201,0.607-0.482,0.767c-0.407,0.215-1.075,0.269-2.005,0.162l-0.476-0.057l-0.076,0.654l11.581,1.345l0.076-0.653
		C235.295,144.022,234.755,143.744,234.397,143.333z M218.385,134.548l4.63-7.817l2.608,8.658L218.385,134.548z"/>
	<path style="fill:#D61E1E;" d="M230.789,153.116c0,0-4.36-4.885-8.282,2.413c-2.144-8.003-7.507-4.246-7.507-4.246
		c-6.983,4.663,5.301,17.861,5.847,18.441l-0.002,0.02c0,0,0.004-0.003,0.012-0.008c0.007,0.007,0.011,0.011,0.011,0.011
		l0.002-0.021C221.535,169.287,236.518,159.256,230.789,153.116z"/>
</g>
<path d="M331.975,329.764l-0.076,0.652c1.235,0.239,2.002,0.472,2.298,0.697c0.504,0.379,0.717,0.905,0.64,1.575
	c-0.059,0.508-0.298,1.129-0.717,1.868l-1.278,2.212l-8.456-0.981l-0.924-3.131c-0.24-0.815-0.365-1.277-0.376-1.386
	c-0.044-0.231-0.055-0.453-0.03-0.665c0.042-0.354,0.202-0.608,0.483-0.767c0.407-0.216,1.075-0.27,2.005-0.161l0.476,0.056
	l0.076-0.653l-11.581-1.345l-0.076,0.652c0.723,0.145,1.263,0.421,1.621,0.832c0.473,0.545,1.014,1.794,1.623,3.749l6.352,20.633
	l0.335,0.04l10.781-18.105c1.024-1.731,1.847-2.855,2.468-3.373c0.621-0.519,1.367-0.794,2.242-0.823l0.076-0.65L331.975,329.764z
	 M327.443,345.822l-2.608-8.659l7.238,0.841L327.443,345.822z"/>
<g>
	<path style="fill:#D61E1E;" d="M330.025,302.265l0.002-0.019c0,0-0.004,0.002-0.013,0.008c-0.006-0.007-0.011-0.011-0.011-0.011
		l-0.002,0.02c-0.664,0.439-15.646,10.47-9.919,16.611c0,0,4.361,4.884,8.282-2.413c2.146,8.002,7.508,4.246,7.508,4.246
		C342.854,316.043,330.57,302.846,330.025,302.265z"/>
	<path style="fill:#D61E1E;" d="M317.449,202.702c0,0-20.84-23.354-39.589,11.531c-10.252-38.254-35.891-20.299-35.891-20.299
		c-33.38,22.293,25.344,85.385,27.952,88.158l-0.011,0.093c0,0,0.022-0.015,0.061-0.04c0.032,0.034,0.051,0.053,0.051,0.053
		l0.011-0.093C273.205,280.003,344.829,232.054,317.449,202.702z"/>
</g>
<path style="fill:#FFFFFF;" d="M432.918,180.916l-115.845-68.275c-7.677-4.524-17.569-1.969-22.095,5.709L191.2,294.435
	c-4.525,7.676-1.969,17.569,5.708,22.094l115.846,68.275c7.679,4.525,17.569,1.97,22.095-5.708l103.777-176.085
	C443.151,195.333,440.597,185.443,432.918,180.916z"/>
<g>
	<path style="fill:#3A3A3A;" d="M315.701,146.248c-0.213-0.689-0.201-2.051,0.034-4.086l2.548-21.437l-0.292-0.172l-17.188,12.188
		c-1.637,1.168-2.844,1.862-3.622,2.085s-1.571,0.171-2.384-0.156l-0.333,0.566l6.905,4.069l0.334-0.566
		c-1.034-0.719-1.641-1.242-1.821-1.567c-0.307-0.553-0.289-1.119,0.054-1.701c0.259-0.439,0.729-0.91,1.413-1.417l2.063-1.506
		l7.334,4.322l-0.423,3.237c-0.111,0.842-0.184,1.315-0.218,1.419c-0.053,0.23-0.133,0.438-0.241,0.621
		c-0.181,0.307-0.431,0.475-0.753,0.505c-0.459,0.032-1.091-0.188-1.898-0.665l-0.413-0.243l-0.333,0.566l10.044,5.919l0.333-0.565
		C316.243,147.241,315.861,146.769,315.701,146.248z M310.894,135.431l-6.277-3.699l7.398-5.272L310.894,135.431z"/>
	<path style="fill:#3A3A3A;" d="M303.135,157.003c-1.017-0.599-2.173-0.741-3.241-0.497l-0.009-0.582
		c1.515-0.003,2.99-0.777,3.815-2.179c1.243-2.109,0.541-4.827-1.569-6.07c-2.11-1.244-4.827-0.542-6.071,1.568
		c-0.83,1.407-0.789,3.083-0.047,4.413l-0.467,0.249c-0.309-1.032-0.989-1.957-1.991-2.549c-2.11-1.243-4.829-0.54-6.072,1.569
		c-1.244,2.11-0.541,4.828,1.568,6.071c1.731,1.021,3.871,0.728,5.27-0.574l0.718,0.423c-2.615,4.252-6.933,4.867-6.933,4.867
		l6.811,4.015c0,0-1.553-4.075,0.899-8.422l0.766,0.45c-0.462,1.854,0.32,3.868,2.05,4.888c2.11,1.244,4.828,0.542,6.071-1.568
		C305.947,160.966,305.245,158.247,303.135,157.003z"/>
	<path style="fill:#3A3A3A;" d="M329.426,356.222l-0.333,0.565c1.032,0.721,1.64,1.243,1.819,1.568
		c0.307,0.552,0.289,1.121-0.055,1.702c-0.258,0.438-0.729,0.912-1.412,1.415l-2.063,1.507l-7.334-4.321l0.422-3.237
		c0.111-0.843,0.184-1.316,0.217-1.419c0.053-0.23,0.134-0.437,0.243-0.621c0.18-0.306,0.431-0.474,0.752-0.505
		c0.459-0.032,1.092,0.188,1.899,0.663l0.413,0.244l0.334-0.565l-10.044-5.92l-0.333,0.565c0.603,0.425,0.984,0.896,1.145,1.419
		c0.212,0.689,0.201,2.05-0.035,4.083l-2.549,21.439l0.292,0.172l17.189-12.19c1.637-1.169,2.843-1.862,3.622-2.084
		c0.778-0.224,1.571-0.171,2.383,0.155l0.333-0.565L329.426,356.222z M318.779,369.071l1.122-8.973l6.278,3.7L318.779,369.071z"/>
	<path style="fill:#3A3A3A;" d="M341.659,336.979c-1.731-1.021-3.87-0.729-5.27,0.574l-0.718-0.423
		c2.615-4.252,6.932-4.867,6.932-4.867l-6.811-4.015c0,0,1.553,4.075-0.9,8.423l-0.765-0.45c0.463-1.856-0.32-3.869-2.05-4.889
		c-2.11-1.243-4.828-0.542-6.07,1.566c-1.244,2.11-0.542,4.828,1.568,6.072c1.016,0.6,2.173,0.742,3.239,0.499l0.011,0.58
		c-1.516,0.005-2.991,0.779-3.816,2.179c-1.244,2.111-0.542,4.828,1.568,6.071c2.111,1.245,4.829,0.542,6.072-1.568
		c0.829-1.407,0.789-3.081,0.048-4.413l0.467-0.25c0.309,1.034,0.99,1.959,1.992,2.549c2.11,1.244,4.828,0.541,6.071-1.569
		C344.471,340.94,343.768,338.222,341.659,336.979z"/>
	<path style="fill:#3A3A3A;" d="M344.953,250.111c-4.862-2.866-10.393-3.549-15.492-2.382l-0.043-2.78
		c7.243-0.017,14.29-3.722,18.234-10.415c5.945-10.086,2.588-23.078-7.498-29.022c-10.085-5.943-23.078-2.587-29.022,7.498
		c-3.965,6.729-3.772,14.737-0.225,21.097l-2.239,1.192c-1.479-4.938-4.729-9.359-9.519-12.182
		c-10.085-5.944-23.079-2.589-29.023,7.498c-5.945,10.086-2.586,23.079,7.499,29.022c8.276,4.879,18.504,3.482,25.194-2.745
		l3.427,2.021c-12.5,20.324-33.133,23.266-33.133,23.266l32.555,19.187c0,0-7.421-19.477,4.305-40.256l3.652,2.152
		c-2.207,8.868,1.526,18.493,9.803,23.371c10.083,5.943,23.078,2.588,29.022-7.498C358.395,269.047,355.037,256.054,344.953,250.111
		z"/>
</g>
<g>
</g>
<g>
</g>
<g>
</g>
<g>
</g>
<g>
</g>
<g>
</g>
<g>
</g>
<g>
</g>
<g>
</g>
<g>
</g>
<g>
</g>
<g>
</g>
<g>
</g>
<g>
</g>
<g>
</g>
</svg>
